<?xml version="1.0" encoding="utf-8"?>
<!-- Generator: Adobe Illustrator 28.0.0, SVG Export Plug-In . SVG Version: 6.00 Build 0)  -->
<svg version="1.1" id="Layer_1" xmlns="http://www.w3.org/2000/svg" xmlns:xlink="http://www.w3.org/1999/xlink" x="0px" y="0px"
	 viewBox="0 0 217 42" style="enable-background:new 0 0 217 42;" xml:space="preserve">
<style type="text/css">
	.st0{fill:#999999;}
</style>
<path class="st0" d="M66.4,20.2h-5.6l0-2.3h5.1c0.8,0,1.6-0.1,2.2-0.4c0.6-0.3,1.1-0.7,1.5-1.2c0.4-0.5,0.5-1.2,0.5-1.9
	c0-0.8-0.2-1.5-0.5-2c-0.3-0.5-0.8-0.9-1.4-1.1c-0.6-0.2-1.4-0.4-2.4-0.4h-4.3v19.7h-2.9V8.4h7.2c1.1,0,2.1,0.1,3,0.3
	C69.6,9,70.4,9.4,71,9.8c0.6,0.5,1.1,1.1,1.4,1.8c0.3,0.7,0.5,1.6,0.5,2.7c0,0.9-0.2,1.7-0.7,2.5c-0.5,0.7-1.1,1.3-1.9,1.8
	c-0.8,0.5-1.8,0.8-2.9,0.9L66.4,20.2z M66.2,30.5h-6.6l1.7-2.4h5c0.9,0,1.7-0.2,2.4-0.5c0.7-0.3,1.2-0.8,1.5-1.4
	c0.3-0.6,0.5-1.3,0.5-2.1c0-0.8-0.1-1.5-0.4-2.1c-0.3-0.6-0.8-1.1-1.4-1.4c-0.6-0.3-1.4-0.5-2.4-0.5h-4.2l0-2.3h5.7l0.6,0.8
	c1.1,0.1,2,0.4,2.7,0.9c0.7,0.5,1.3,1.2,1.7,1.9c0.4,0.8,0.6,1.7,0.6,2.6c0,1.4-0.3,2.5-0.9,3.5c-0.6,0.9-1.4,1.7-2.5,2.2
	C69,30.2,67.7,30.5,66.2,30.5z M76.7,22.5v-0.3c0-1.2,0.2-2.3,0.5-3.3c0.3-1,0.8-1.9,1.5-2.7c0.6-0.8,1.4-1.3,2.3-1.8
	c0.9-0.4,1.9-0.6,3.1-0.6c1.2,0,2.2,0.2,3.1,0.6c0.9,0.4,1.7,1,2.4,1.8c0.7,0.7,1.2,1.6,1.5,2.7c0.3,1,0.5,2.1,0.5,3.3v0.3
	c0,1.2-0.2,2.3-0.5,3.3c-0.3,1-0.8,1.9-1.5,2.7c-0.6,0.7-1.4,1.3-2.3,1.8c-0.9,0.4-1.9,0.6-3.1,0.6c-1.2,0-2.2-0.2-3.1-0.6
	c-0.9-0.4-1.7-1-2.4-1.8c-0.6-0.8-1.1-1.6-1.5-2.7C76.8,24.8,76.7,23.7,76.7,22.5z M79.5,22.1v0.3c0,0.8,0.1,1.6,0.3,2.3
	c0.2,0.7,0.5,1.4,0.9,1.9c0.4,0.6,0.9,1,1.5,1.3c0.6,0.3,1.3,0.5,2,0.5c0.8,0,1.4-0.2,2-0.5c0.6-0.3,1.1-0.8,1.5-1.3
	c0.4-0.6,0.7-1.2,0.9-1.9c0.2-0.7,0.3-1.5,0.3-2.3v-0.3c0-0.8-0.1-1.6-0.3-2.3c-0.2-0.7-0.5-1.4-0.9-1.9c-0.4-0.6-0.9-1-1.5-1.3
	c-0.6-0.3-1.3-0.5-2-0.5c-0.8,0-1.4,0.2-2,0.5c-0.6,0.3-1.1,0.8-1.5,1.3c-0.4,0.6-0.7,1.2-0.9,1.9C79.6,20.6,79.5,21.3,79.5,22.1z
	 M94.3,22.5v-0.3c0-1.2,0.2-2.3,0.5-3.3c0.3-1,0.8-1.9,1.5-2.7c0.6-0.8,1.4-1.3,2.3-1.8c0.9-0.4,1.9-0.6,3.1-0.6
	c1.2,0,2.2,0.2,3.1,0.6c0.9,0.4,1.7,1,2.4,1.8c0.7,0.7,1.2,1.6,1.5,2.7c0.3,1,0.5,2.1,0.5,3.3v0.3c0,1.2-0.2,2.3-0.5,3.3
	c-0.3,1-0.8,1.9-1.5,2.7c-0.6,0.7-1.4,1.3-2.3,1.8c-0.9,0.4-1.9,0.6-3.1,0.6c-1.2,0-2.2-0.2-3.1-0.6c-0.9-0.4-1.7-1-2.4-1.8
	c-0.6-0.8-1.1-1.6-1.5-2.7C94.5,24.8,94.3,23.7,94.3,22.5z M97.1,22.1v0.3c0,0.8,0.1,1.6,0.3,2.3c0.2,0.7,0.5,1.4,0.9,1.9
	c0.4,0.6,0.9,1,1.5,1.3c0.6,0.3,1.3,0.5,2,0.5c0.8,0,1.4-0.2,2-0.5c0.6-0.3,1.1-0.8,1.5-1.3c0.4-0.6,0.7-1.2,0.9-1.9
	c0.2-0.7,0.3-1.5,0.3-2.3v-0.3c0-0.8-0.1-1.6-0.3-2.3c-0.2-0.7-0.5-1.4-0.9-1.9c-0.4-0.6-0.9-1-1.5-1.3c-0.6-0.3-1.3-0.5-2-0.5
	c-0.8,0-1.4,0.2-2,0.5c-0.6,0.3-1.1,0.8-1.5,1.3c-0.4,0.6-0.7,1.2-0.9,1.9C97.2,20.6,97.1,21.3,97.1,22.1z M115.6,17.4v13.1h-2.8
	V14.1h2.7L115.6,17.4z M115,21.7l-1.3,0c0-1.1,0.2-2.2,0.4-3.1c0.3-1,0.7-1.8,1.3-2.5c0.6-0.7,1.2-1.3,2.1-1.6
	c0.8-0.4,1.8-0.6,2.9-0.6c0.8,0,1.5,0.1,2.1,0.3c0.6,0.2,1.2,0.6,1.7,1c0.5,0.5,0.8,1.1,1.1,1.8c0.3,0.7,0.4,1.6,0.4,2.6v10.9h-2.8
	V19.7c0-0.9-0.1-1.5-0.4-2.1c-0.3-0.5-0.7-0.9-1.2-1.1c-0.5-0.2-1.1-0.4-1.8-0.4c-0.8,0-1.5,0.1-2.1,0.4c-0.6,0.3-1,0.7-1.3,1.2
	c-0.3,0.5-0.6,1.1-0.7,1.8C115.1,20.2,115,20.9,115,21.7z M125.6,20.1l-1.9,0.6c0-0.9,0.2-1.8,0.4-2.6c0.3-0.8,0.7-1.6,1.3-2.2
	c0.6-0.6,1.2-1.2,2-1.5c0.8-0.4,1.7-0.6,2.8-0.6c0.9,0,1.7,0.1,2.3,0.3c0.7,0.2,1.3,0.6,1.7,1.1c0.5,0.5,0.8,1.1,1.1,1.8
	c0.2,0.7,0.4,1.6,0.4,2.7v10.8h-2.8V19.7c0-0.9-0.1-1.6-0.4-2.1c-0.3-0.5-0.7-0.9-1.2-1.1c-0.5-0.2-1.1-0.3-1.8-0.3
	c-0.6,0-1.2,0.1-1.6,0.3c-0.5,0.2-0.9,0.5-1.2,0.9c-0.3,0.4-0.6,0.8-0.7,1.3C125.7,19.1,125.6,19.6,125.6,20.1z M146.8,30.8
	c-1.1,0-2.2-0.2-3.1-0.6c-0.9-0.4-1.7-0.9-2.4-1.7c-0.7-0.7-1.2-1.5-1.5-2.5c-0.4-1-0.5-2-0.5-3.2v-0.6c0-1.3,0.2-2.5,0.6-3.6
	c0.4-1.1,0.9-1.9,1.6-2.7c0.7-0.7,1.4-1.3,2.3-1.7s1.7-0.6,2.7-0.6c1.2,0,2.2,0.2,3,0.6c0.9,0.4,1.6,1,2.1,1.7
	c0.5,0.7,1,1.6,1.2,2.5c0.3,1,0.4,2,0.4,3.2v1.3h-12.2v-2.3h9.4v-0.2c0-0.7-0.2-1.4-0.5-2.1c-0.3-0.7-0.7-1.3-1.2-1.7
	c-0.6-0.4-1.3-0.7-2.3-0.7c-0.6,0-1.2,0.1-1.8,0.4c-0.5,0.3-1,0.7-1.4,1.2c-0.4,0.5-0.7,1.2-0.9,1.9c-0.2,0.8-0.3,1.6-0.3,2.6v0.6
	c0,0.8,0.1,1.5,0.3,2.2c0.2,0.7,0.5,1.3,1,1.8c0.4,0.5,0.9,0.9,1.5,1.2c0.6,0.3,1.3,0.4,2.1,0.4c1,0,1.8-0.2,2.5-0.6
	s1.3-0.9,1.8-1.6l1.7,1.3c-0.4,0.5-0.8,1-1.3,1.5c-0.5,0.5-1.2,0.9-2,1.2C148.8,30.6,147.9,30.8,146.8,30.8z M159.2,16.7v13.8h-2.8
	V14.1h2.7L159.2,16.7z M164.4,14l0,2.6c-0.2-0.1-0.5-0.1-0.7-0.1c-0.2,0-0.4,0-0.7,0c-0.6,0-1.2,0.1-1.7,0.3
	c-0.5,0.2-0.9,0.5-1.3,0.8c-0.3,0.4-0.6,0.8-0.8,1.3c-0.2,0.5-0.3,1-0.4,1.6L158,21c0-1,0.1-1.9,0.3-2.8c0.2-0.9,0.5-1.6,0.9-2.3
	c0.4-0.7,0.9-1.2,1.6-1.6c0.6-0.4,1.4-0.6,2.3-0.6c0.2,0,0.4,0,0.7,0.1C164.1,13.9,164.3,14,164.4,14z M176,27.7v-8.4
	c0-0.6-0.1-1.2-0.4-1.7c-0.3-0.5-0.6-0.9-1.2-1.1c-0.5-0.3-1.2-0.4-1.9-0.4c-0.7,0-1.3,0.1-1.9,0.4c-0.5,0.2-0.9,0.6-1.2,1
	c-0.3,0.4-0.4,0.8-0.4,1.3h-2.8c0-0.6,0.2-1.2,0.5-1.7c0.3-0.6,0.7-1.1,1.3-1.6c0.6-0.5,1.3-0.8,2.1-1.1c0.8-0.3,1.7-0.4,2.7-0.4
	c1.2,0,2.2,0.2,3.2,0.6c0.9,0.4,1.6,1,2.2,1.8c0.5,0.8,0.8,1.8,0.8,3v7.6c0,0.5,0,1.1,0.1,1.7c0.1,0.6,0.2,1.1,0.4,1.6v0.2h-2.9
	c-0.1-0.3-0.3-0.8-0.3-1.3C176,28.7,176,28.1,176,27.7z M176.5,20.6l0,2h-2.8c-0.8,0-1.5,0.1-2.1,0.2c-0.6,0.1-1.2,0.3-1.6,0.6
	c-0.4,0.3-0.7,0.6-1,1c-0.2,0.4-0.3,0.8-0.3,1.3c0,0.5,0.1,1,0.3,1.4c0.2,0.4,0.6,0.8,1,1c0.5,0.2,1.1,0.4,1.7,0.4
	c0.9,0,1.6-0.2,2.3-0.5c0.7-0.4,1.2-0.8,1.6-1.3c0.4-0.5,0.6-1,0.6-1.5l1.2,1.3c-0.1,0.4-0.3,0.9-0.6,1.4c-0.3,0.5-0.7,1-1.3,1.5
	c-0.5,0.5-1.1,0.9-1.8,1.2c-0.7,0.3-1.5,0.5-2.4,0.5c-1.1,0-2.1-0.2-2.9-0.7c-0.8-0.4-1.5-1-1.9-1.7c-0.5-0.7-0.7-1.6-0.7-2.5
	c0-0.9,0.2-1.7,0.5-2.3c0.3-0.7,0.8-1.2,1.5-1.7c0.6-0.5,1.4-0.8,2.3-1c0.9-0.2,1.9-0.3,3-0.3H176.5z M186,17.6v12.9h-2.8V14.1h2.7
	L186,17.6z M185.3,21.7l-1.2,0c0-1.1,0.2-2.2,0.5-3.1c0.3-1,0.8-1.8,1.4-2.5c0.6-0.7,1.3-1.3,2.1-1.6c0.8-0.4,1.7-0.6,2.7-0.6
	c0.8,0,1.5,0.1,2.2,0.3c0.6,0.2,1.2,0.6,1.7,1c0.5,0.5,0.8,1.1,1.1,1.8c0.2,0.7,0.4,1.7,0.4,2.7v10.7h-2.8V19.7
	c0-0.9-0.1-1.5-0.4-2.1c-0.3-0.5-0.6-0.9-1.1-1.1c-0.5-0.2-1.1-0.4-1.8-0.4c-0.7,0-1.3,0.1-1.9,0.4c-0.6,0.3-1.1,0.7-1.5,1.2
	c-0.4,0.5-0.7,1.1-1,1.8C185.5,20.2,185.3,20.9,185.3,21.7z M211,14.1h2.5v16c0,1.4-0.3,2.7-0.9,3.7c-0.6,1-1.4,1.8-2.5,2.3
	c-1,0.5-2.2,0.8-3.6,0.8c-0.6,0-1.2-0.1-2-0.3c-0.8-0.2-1.5-0.5-2.2-0.9c-0.7-0.4-1.3-1-1.8-1.7l1.5-1.7c0.7,0.8,1.4,1.4,2.2,1.7
	c0.8,0.3,1.5,0.5,2.2,0.5c0.9,0,1.7-0.2,2.3-0.5c0.6-0.3,1.1-0.8,1.5-1.5c0.4-0.6,0.5-1.4,0.5-2.4V17.7L211,14.1z M199.7,22.5v-0.3
	c0-1.3,0.1-2.4,0.4-3.4c0.3-1,0.7-1.9,1.3-2.7c0.6-0.7,1.2-1.3,2-1.7c0.8-0.4,1.7-0.6,2.7-0.6c1,0,1.9,0.2,2.7,0.5
	c0.8,0.4,1.4,0.9,2,1.6c0.5,0.7,1,1.5,1.3,2.5c0.3,1,0.5,2,0.7,3.3V23c-0.1,1.2-0.3,2.3-0.7,3.2c-0.3,1-0.7,1.8-1.3,2.5
	c-0.5,0.7-1.2,1.2-2,1.6c-0.8,0.4-1.7,0.5-2.7,0.5c-1,0-1.9-0.2-2.7-0.6c-0.8-0.4-1.5-1-2-1.7c-0.6-0.7-1-1.6-1.3-2.6
	C199.8,24.8,199.7,23.7,199.7,22.5z M202.5,22.2v0.3c0,0.8,0.1,1.6,0.2,2.3c0.2,0.7,0.4,1.3,0.8,1.9c0.4,0.5,0.8,1,1.3,1.3
	c0.5,0.3,1.2,0.5,2,0.5c0.9,0,1.7-0.2,2.3-0.6c0.6-0.4,1.1-0.9,1.4-1.6c0.4-0.6,0.6-1.3,0.8-2.1v-3.7c-0.1-0.6-0.3-1.1-0.5-1.6
	c-0.2-0.5-0.5-1-0.9-1.4c-0.4-0.4-0.8-0.7-1.3-1c-0.5-0.2-1.1-0.4-1.8-0.4c-0.8,0-1.4,0.2-2,0.5c-0.5,0.3-1,0.7-1.3,1.3
	c-0.3,0.5-0.6,1.2-0.8,1.9C202.6,20.6,202.5,21.3,202.5,22.2z"/>
<path class="st0" d="M18.2,18.3c7.8-4.9,18.3-1.3,13.9,7.3c-4.4,8.6-44.7-7.3-28.2,0.6c16.5,7.9,22.9,24,29.6,8.8
	c6.8-15.2,14.9-48.1-8-28.1C2.7,26.9,8.4,24.4,18.2,18.3z"/>
</svg>
